<?xml version="1.0" encoding="iso-8859-1"?>
<!-- Generator: Adobe Illustrator 17.1.0, SVG Export Plug-In . SVG Version: 6.00 Build 0)  -->
<!DOCTYPE svg PUBLIC "-//W3C//DTD SVG 1.1//EN" "http://www.w3.org/Graphics/SVG/1.1/DTD/svg11.dtd">
<svg version="1.1" id="Capa_1" xmlns="http://www.w3.org/2000/svg" xmlns:xlink="http://www.w3.org/1999/xlink" x="0px" y="0px"
	 viewBox="0 0 362.582 362.582" style="enable-background:new 0 0 362.582 362.582;" xml:space="preserve">
<g>
	<path fill="#ff9100" d="M335.841,39.604c-6.93-4.742-6.93-4.742-10.57-11.657c-1.914-3.638-2.614-7.376-3.077-9.851
		c-0.435-2.319-0.652-3.483-1.848-3.483c-0.311,0-0.565,0.116-0.771,0.27c-0.175-0.516-0.362-1.21-0.505-1.736
		c-0.655-2.429-1.274-4.722-2.956-4.722l-0.185,0.011c-1.756,0.202-2.029,2.029-2.193,3.12c-0.009,0.063-0.02,0.13-0.03,0.2
		c-0.344-0.718-0.575-2.146-0.727-3.079c-0.354-2.188-0.722-4.45-2.535-4.45c-1.713,0-2.148,1.768-2.408,2.824
		c-0.051,0.205-0.117,0.475-0.184,0.684c-0.697-0.596-1.036-2.219-1.314-3.549C306.128,2.224,305.662,0,303.732,0
		c-0.562,0-1.06,0.201-1.438,0.583c-0.895,0.896-0.889,2.56-0.883,4.026c0.001,0.257,0.002,0.576-0.007,0.864
		c-0.319-0.247-0.687-0.556-0.975-0.797c-1.651-1.385-2.816-2.292-3.918-2.292c-0.369,0-1.59,0.138-1.787,1.907
		c-0.211,1.9,0.878,3.874,1.838,5.615c0.457,0.829,1.223,2.217,1.09,2.59c-0.41,0.205-1.276,0.403-2.28,0.632
		c-3.672,0.837-10.507,2.396-15.354,9.063c-2.228,3.063-5.274,5.773-8.499,8.645c-5.429,4.831-11.042,9.827-14.15,17.478
		c-2.163,5.324-4.619,14.608-7.219,24.437c-3.223,12.183-6.555,24.78-9.229,29.113c-8.392,13.598-28.729,20.493-60.447,20.494
		c-9.78,0-18.455-0.681-23.638-1.088c-1.78-0.14-3.204-0.251-4.181-0.298c-4.961-1.708-8.641-4.51-10.938-8.328
		c-4.726-7.855-12.54-26.714-20.097-44.951C107.328,33.2,102.402,22.46,99.425,22.46l-0.143,0.007
		c-2.35,0.223-2.929,2.099-3.025,3.752c-0.464-0.729-0.921-1.473-1.187-1.904c-4.26-6.92-9.162-10.73-13.805-10.73
		c-2.144,0-4.158,0.849-5.824,2.455c-3.996,3.854-4.801,6.667-5.448,8.928c-0.521,1.824-0.898,3.142-2.759,4.668
		c-0.555,0.455-1.999,0.816-3.527,1.2c-4.37,1.095-10.975,2.749-11.388,9.979c-0.51,8.928-3.042,12.189-5.077,14.81
		c-2.128,2.74-3.965,5.106-2.571,11.865c1.001,4.85,1.028,6.144-4.266,13.828c-4.999,7.257-21.137,40.815-11.441,55.43
		c3.238,4.883,2.152,9.554,0.508,16.627c-2.708,11.645-6.8,29.238,6.586,62.282c7.818,19.303,23.578,31.248,32.994,38.389
		c1.798,1.364,3.352,2.529,4.614,3.573c7.537,6.231,26.299,15.425,42.634,15.425c3.724,0,7.19-0.532,10.307-1.474
		c3.415-1.029,7.476,2.634,12.839,7.647c7.419,6.935,17.643,16.361,33.89,20.838c2.025,7.043,3.394,12.093,3.414,12.904
		c-0.159,1.735-4.818,4.321-9.752,7.059c-3.521,1.953-5.37,4.101-4.945,5.743c0.316,1.219,1.714,1.712,3.504,1.152
		c0.473-0.147,0.937-0.313,1.409-0.48c1.629-0.58,3.313-1.18,5.876-1.18c1.643,0,3.469,0.241,5.581,0.738
		c3.968,0.933,4.974,2.25,6.038,3.644c1.039,1.36,2.216,2.901,5.783,3.883c1.362,0.375,2.829,0.714,4.381,1.072
		c6.057,1.399,12.921,2.985,15.015,7.22c0.254,0.513,0.412,0.941,0.54,1.286c0.277,0.75,0.623,1.685,1.811,1.685
		c0.324,0,0.693-0.075,1.234-0.25c1.424-0.461,2.832-1.908,3.426-3.52c0.529-1.438,0.396-2.921-0.375-4.175
		c-1.247-2.026-3.291-3.75-5.475-5.151c1.782,0.262,3.697,0.45,5.671,0.498c8.232,0.2,14.141,1.659,17.996,2.901
		c-1.117,1.779-4.82,4.308-8.714,6.963c-3.31,2.257-4.922,4.478-4.424,6.092c0.378,1.229,1.844,1.647,3.622,0.907
		c0.456-0.19,0.903-0.396,1.358-0.607c1.898-0.88,3.862-1.79,7.46-1.79c1.179,0,2.494,0.1,3.908,0.298
		c4.037,0.565,5.159,1.784,6.348,3.075c1.158,1.259,2.473,2.686,6.115,3.336c1.39,0.248,2.881,0.451,4.459,0.665
		c6.159,0.838,13.141,1.786,15.615,5.812c0.299,0.487,0.496,0.9,0.654,1.231c0.341,0.712,0.728,1.52,1.779,1.519
		c0.37,0,0.771-0.107,1.384-0.37c1.376-0.589,2.646-2.16,3.09-3.819c0.396-1.48,0.127-2.944-0.756-4.121
		c-1.429-1.905-3.624-3.435-5.929-4.63c1.836,0.101,3.852,0.102,5.696-0.022c1.65-0.112,3.299-0.169,4.9-0.169
		c8.324,0,13.961,1.522,16.67,2.253c1.084,0.293,1.682,0.454,2.121,0.454c0.631,0,0.936-0.34,1.061-0.543
		c0.126-0.203,0.294-0.628,0.013-1.19c-1.295-2.59-3.693-5.383-12.394-8.252c-2.976-0.982-8.327-1.442-13.049-1.85
		c-2.467-0.212-5.365-0.462-7.064-0.757c0.952-0.335,2.021-0.527,2.813-0.67c1.231-0.222,2.122-0.382,2.141-1.347
		c0.021-1.096-0.868-1.293-5.146-2.237c-1.679-0.371-3.276-0.551-4.886-0.551c-1.957,0-3.549,0.272-4.827,0.491
		c-1.332,0.229-2.378,0.384-3.016,0.153c-1.769-1.812-11.424-22.73-19.702-41.26c3.99-1.454,8.062-3.089,12.221-4.928
		c1.807-0.483,3.477-0.735,5.103-1.215c29.062-8.566,74.569-42.8,80.826-101.998c6.78-64.153-6.703-88.669-11.134-96.725
		c-6.076-11.049-10.811-25.081-5.876-31.332c4.339-5.497,4.034-12.29,3.871-15.94c-0.033-0.736-0.07-1.551-0.044-1.988
		c0.089-0.007,0.204-0.012,0.351-0.012c1.642,0,4.934,0.588,7.838,1.106c2.683,0.479,5,0.894,6.146,0.894
		c0.314,0,1.272,0,1.536-0.851C336.782,40.594,336.524,40.072,335.841,39.604z M193.143,302.621c8.624,0,17.985-1.288,27.991-3.889
		c4.348,10.776,8.703,21.722,11.297,28.558c-0.89-0.453-1.869-0.916-2.958-1.39c-2.873-1.25-8.158-2.199-12.821-3.037
		c-2.438-0.438-5.304-0.953-6.968-1.403c0.979-0.246,2.061-0.34,2.861-0.409c1.247-0.107,2.148-0.186,2.256-1.144
		c0.122-1.09-0.747-1.367-4.919-2.7c-2.291-0.732-4.523-1.089-6.826-1.089c-1.075,0-2.013,0.073-2.84,0.138
		c-0.639,0.05-1.189,0.093-1.676,0.093c-0.599,0-1.019-0.067-1.342-0.217c-0.749-0.923-2.844-6.203-5.532-13.533
		c0.488,0.008,0.971,0.022,1.467,0.022C193.137,302.621,193.139,302.621,193.143,302.621z M211.99,343.771L211.99,343.771v0.009
		V343.771z"/>
</g>
<g>
</g>
<g>
</g>
<g>
</g>
<g>
</g>
<g>
</g>
<g>
</g>
<g>
</g>
<g>
</g>
<g>
</g>
<g>
</g>
<g>
</g>
<g>
</g>
<g>
</g>
<g>
</g>
<g>
</g>
</svg>
