<svg xmlns="http://www.w3.org/2000/svg" xmlns:xlink="http://www.w3.org/1999/xlink" version="1.1" x="0px" y="0px" viewBox="0 0 100 125" style="enable-background:new 0 0 100 100;" xml:space="preserve"><g><path d="M84.3,30.4h-6.1V66h6.1c3.2,0,5.7-2.6,5.7-5.7V36.2C90,33,87.5,30.4,84.3,30.4z"/><polygon points="26,36.4 22.4,42.3 22.4,54.2 26,60.1 28.4,60.1 34.3,66 34.3,30.5 28.4,36.4  "/><path d="M19.5,45.3c-0.9,0-1.6,0.6-1.7,1.5H10v2.9h7.7c0.1,0.8,0.8,1.5,1.7,1.5c1,0,1.7-0.8,1.7-1.8V47   C21.2,46.1,20.4,45.3,19.5,45.3z"/><path d="M35.5,66h41.5V30.4H35.5V66z M72.8,63.6H39.6c-0.7,0-1.2-0.5-1.2-1.2s0.5-1.2,1.2-1.2h33.2c0.7,0,1.2,0.5,1.2,1.2   S73.5,63.6,72.8,63.6z M72.8,58.9H39.6c-0.7,0-1.2-0.5-1.2-1.2s0.5-1.2,1.2-1.2h33.2c0.7,0,1.2,0.5,1.2,1.2S73.5,58.9,72.8,58.9z    M72.8,54.1H39.6c-0.7,0-1.2-0.5-1.2-1.2s0.5-1.2,1.2-1.2h33.2c0.7,0,1.2,0.5,1.2,1.2S73.5,54.1,72.8,54.1z M39.6,32.8h33.2   c0.7,0,1.2,0.5,1.2,1.2c0,0.7-0.5,1.2-1.2,1.2H39.6c-0.7,0-1.2-0.5-1.2-1.2C38.5,33.3,39,32.8,39.6,32.8z M39.6,37.6h33.2   c0.7,0,1.2,0.5,1.2,1.1c0,0.7-0.5,1.1-1.2,1.1H39.6c-0.7,0-1.2-0.5-1.2-1.1C38.5,38.1,39,37.6,39.6,37.6z M39.6,42.3h33.2   c0.7,0,1.2,0.5,1.2,1.2c0,0.7-0.5,1.2-1.2,1.2H39.6c-0.7,0-1.2-0.5-1.2-1.2C38.5,42.8,39,42.3,39.6,42.3z M39.6,47.1h33.2   c0.7,0,1.2,0.5,1.2,1.2c0,0.7-0.5,1.2-1.2,1.2H39.6c-0.7,0-1.2-0.5-1.2-1.2C38.5,47.6,39,47.1,39.6,47.1z"/><path d="M65.1,25.6c0-1.3-1-2.3-2.2-2.3H49.7c-1.3,0-2.3,1-2.3,2.3v3.6h17.7V25.6z M56.2,28.1c-1,0-1.8-0.8-1.8-1.8   c0-0.3,0.1-0.5,0.2-0.8l2.4,2.4C56.8,28,56.5,28.1,56.2,28.1z M57.8,27.1l-2.4-2.4c0.2-0.1,0.5-0.2,0.8-0.2c1,0,1.8,0.8,1.8,1.8   C58,26.6,57.9,26.8,57.8,27.1z"/><path d="M75,70.7c-0.2,0-0.6,0-0.6,0c-5.8-0.4-7-3.5-8-3.5c-6.7,0-13.5,0-20.2,0c-1.1,0-2.3,3.3-8.7,3.5c-0.4,0-0.8,0.4-0.8,0.8   v4.3c0,0.4,0.4,0.8,0.8,0.8h36.9h0H75c0.4,0,0.7-0.4,0.7-0.8v-4.3C75.7,71.1,75.4,70.7,75,70.7z"/></g><text x="0" y="115" fill="#000000" font-size="5px" font-weight="bold" font-family="'Helvetica Neue', Helvetica, Arial-Unicode, Arial, Sans-serif">Created by Musmellow</text><text x="0" y="120" fill="#000000" font-size="5px" font-weight="bold" font-family="'Helvetica Neue', Helvetica, Arial-Unicode, Arial, Sans-serif">from the Noun Project</text></svg>