<?xml version="1.0" encoding="iso-8859-1"?>
<!-- Generator: Adobe Illustrator 19.0.0, SVG Export Plug-In . SVG Version: 6.00 Build 0)  -->
<svg version="1.1" id="Layer_1" xmlns="http://www.w3.org/2000/svg" xmlns:xlink="http://www.w3.org/1999/xlink" x="0px" y="0px"
	 viewBox="0 0 512 512" style="enable-background:new 0 0 512 512;" xml:space="preserve">
<g>
	<g>
		<path d="M266.449,322.898V67.049c0-5.771-4.678-10.449-10.449-10.449c-5.771,0-10.449,4.678-10.449,10.449v255.849
			c-38.864,5.135-68.963,38.458-68.963,78.703c0,43.789,35.625,79.413,79.412,79.413s79.412-35.625,79.412-79.413
			C335.412,361.357,305.313,328.032,266.449,322.898z M256,460.117c-32.265,0-58.514-26.25-58.514-58.515
			c0-32.264,26.249-58.514,58.514-58.514s58.514,26.25,58.514,58.514C314.514,433.867,288.265,460.117,256,460.117z"/>
	</g>
</g>
<g>
	<g>
		<path d="M315.463,308.577V59.463C315.463,26.675,288.788,0,256,0s-59.463,26.675-59.463,59.463v249.114
			c-31.569,20.218-50.936,55.31-50.936,93.023c0,60.875,49.524,110.4,110.399,110.4s110.399-49.525,110.399-110.399
			C366.399,363.887,347.033,328.795,315.463,308.577z M256,491.102c-49.351,0-89.501-40.15-89.501-89.501
			c0-32.257,17.481-62.152,45.618-78.017c3.286-1.853,5.318-5.331,5.318-9.102V59.463c0-21.265,17.299-38.565,38.565-38.565
			s38.565,17.3,38.565,38.565v255.019c0,3.771,2.031,7.25,5.318,9.102c28.138,15.866,45.618,45.76,45.618,78.017
			C345.501,450.952,305.351,491.102,256,491.102z"/>
	</g>
</g>
<g>
	<g>
		<path d="M262.365,356.078c-1.965-0.182-3.335-0.302-5.792-0.437c-5.779-0.313-10.689,4.098-11.006,9.861
			c-0.316,5.762,4.099,10.689,9.861,11.006c2.021,0.111,3.128,0.205,5.01,0.379c0.327,0.03,0.653,0.045,0.976,0.045
			c5.335,0,9.891-4.068,10.393-9.487C272.338,361.7,268.111,356.61,262.365,356.078z"/>
	</g>
</g>
<g>
	<g>
		<path d="M297.863,382.573c-2.391-5.253-8.587-7.573-13.839-5.182c-5.252,2.391-7.572,8.586-5.182,13.839
			c1.484,3.26,2.236,6.749,2.236,10.372c0,13.828-11.25,25.079-25.078,25.079c-13.827,0-25.078-11.25-25.078-25.079
			c0-5.771-4.678-10.449-10.449-10.449c-5.771,0-10.449,4.678-10.449,10.449c0,25.351,20.624,45.977,45.975,45.977
			c25.351,0,45.976-20.625,45.976-45.977C301.976,394.971,300.592,388.569,297.863,382.573z"/>
	</g>
</g>
<g>
</g>
<g>
</g>
<g>
</g>
<g>
</g>
<g>
</g>
<g>
</g>
<g>
</g>
<g>
</g>
<g>
</g>
<g>
</g>
<g>
</g>
<g>
</g>
<g>
</g>
<g>
</g>
<g>
</g>
</svg>
